<mxfile host="www.draw.io" modified="2019-11-20T05:24:59.030Z" agent="Mozilla/5.0 (Windows NT 10.0; Win64; x64) AppleWebKit/537.36 (KHTML, like Gecko) Chrome/79.0.3945.36 Safari/537.36" etag="rRrkp_RCu7RWut9OBhA1" version="12.2.7" type="github" pages="1">
  <diagram name="Page-1" id="e7e014a7-5840-1c2e-5031-d8a46d1fe8dd">
    <mxGraphModel dx="1173" dy="723" grid="1" gridSize="10" guides="1" tooltips="1" connect="1" arrows="1" fold="1" page="1" pageScale="1" pageWidth="1169" pageHeight="826" background="#ffffff" math="0" shadow="0">
      <root>
        <mxCell id="0"/>
        <mxCell id="1" parent="0"/>
        <mxCell id="2" value="User" style="swimlane;whiteSpace=wrap" parent="1" vertex="1">
          <mxGeometry x="165" y="128" width="280" height="672" as="geometry"/>
        </mxCell>
        <mxCell id="5" value="" style="ellipse;shape=startState;fillColor=#000000;strokeColor=#ff0000;" parent="2" vertex="1">
          <mxGeometry x="124" y="22" width="30" height="30" as="geometry"/>
        </mxCell>
        <mxCell id="6" value="" style="edgeStyle=elbowEdgeStyle;elbow=horizontal;verticalAlign=bottom;endArrow=open;endSize=8;strokeColor=#000000;endFill=1;rounded=0;exitX=0.5;exitY=0.846;exitDx=0;exitDy=0;exitPerimeter=0;" parent="2" source="5" target="7" edge="1">
          <mxGeometry x="99" y="10" as="geometry">
            <mxPoint x="114" y="80" as="targetPoint"/>
            <mxPoint x="139" y="52" as="sourcePoint"/>
          </mxGeometry>
        </mxCell>
        <mxCell id="7" value="Selects &#39;Order Pickup&#39; from HomePage" style="whiteSpace=wrap;" parent="2" vertex="1">
          <mxGeometry x="84" y="72" width="110" height="50" as="geometry"/>
        </mxCell>
        <mxCell id="9" value="" style="endArrow=open;strokeColor=#000000;endFill=1;rounded=0;entryX=0.5;entryY=0;entryDx=0;entryDy=0;" parent="2" source="7" target="YOjoh3aK9eh-R5aicv4c-41" edge="1">
          <mxGeometry relative="1" as="geometry">
            <mxPoint x="114" y="190" as="targetPoint"/>
          </mxGeometry>
        </mxCell>
        <mxCell id="YOjoh3aK9eh-R5aicv4c-41" value="Creates Order" style="shape=process;whiteSpace=wrap;html=1;backgroundOutline=1;" vertex="1" parent="2">
          <mxGeometry x="79" y="182" width="120" height="60" as="geometry"/>
        </mxCell>
        <mxCell id="YOjoh3aK9eh-R5aicv4c-62" value="Receive Customer Order Confirmation" style="whiteSpace=wrap;" vertex="1" parent="2">
          <mxGeometry x="84" y="562" width="110" height="50" as="geometry"/>
        </mxCell>
        <mxCell id="3" value="System" style="swimlane;whiteSpace=wrap" parent="1" vertex="1">
          <mxGeometry x="445" y="128" width="280" height="672" as="geometry"/>
        </mxCell>
        <mxCell id="17" value="" style="endArrow=open;strokeColor=#000000;endFill=1;rounded=0;exitX=0.5;exitY=1;exitDx=0;exitDy=0;entryX=0.5;entryY=0;entryDx=0;entryDy=0;" parent="3" source="YOjoh3aK9eh-R5aicv4c-42" target="YOjoh3aK9eh-R5aicv4c-43" edge="1">
          <mxGeometry relative="1" as="geometry">
            <mxPoint x="74" y="130" as="sourcePoint"/>
            <mxPoint x="74" y="190" as="targetPoint"/>
          </mxGeometry>
        </mxCell>
        <mxCell id="YOjoh3aK9eh-R5aicv4c-51" value="" style="edgeStyle=orthogonalEdgeStyle;rounded=0;orthogonalLoop=1;jettySize=auto;html=1;" edge="1" parent="3" source="30" target="YOjoh3aK9eh-R5aicv4c-50">
          <mxGeometry relative="1" as="geometry"/>
        </mxCell>
        <mxCell id="30" value="Change PUP Status Remove from Driver Queue" style="whiteSpace=wrap;" parent="3" vertex="1">
          <mxGeometry x="83.5" y="257" width="110" height="50" as="geometry"/>
        </mxCell>
        <mxCell id="YOjoh3aK9eh-R5aicv4c-54" value="" style="edgeStyle=orthogonalEdgeStyle;rounded=0;orthogonalLoop=1;jettySize=auto;html=1;" edge="1" parent="3" source="YOjoh3aK9eh-R5aicv4c-50" target="YOjoh3aK9eh-R5aicv4c-53">
          <mxGeometry relative="1" as="geometry"/>
        </mxCell>
        <mxCell id="YOjoh3aK9eh-R5aicv4c-50" value="Add PUP to top of Driver Queue" style="whiteSpace=wrap;" vertex="1" parent="3">
          <mxGeometry x="83.5" y="330" width="110" height="50" as="geometry"/>
        </mxCell>
        <mxCell id="YOjoh3aK9eh-R5aicv4c-56" value="" style="edgeStyle=orthogonalEdgeStyle;rounded=0;orthogonalLoop=1;jettySize=auto;html=1;" edge="1" parent="3" source="YOjoh3aK9eh-R5aicv4c-53" target="YOjoh3aK9eh-R5aicv4c-55">
          <mxGeometry relative="1" as="geometry"/>
        </mxCell>
        <mxCell id="YOjoh3aK9eh-R5aicv4c-53" value="Add PUP to top of Driver Queue" style="whiteSpace=wrap;" vertex="1" parent="3">
          <mxGeometry x="83.5" y="410" width="110" height="50" as="geometry"/>
        </mxCell>
        <mxCell id="YOjoh3aK9eh-R5aicv4c-59" value="" style="edgeStyle=orthogonalEdgeStyle;rounded=0;orthogonalLoop=1;jettySize=auto;html=1;" edge="1" parent="3" source="YOjoh3aK9eh-R5aicv4c-55" target="YOjoh3aK9eh-R5aicv4c-58">
          <mxGeometry relative="1" as="geometry"/>
        </mxCell>
        <mxCell id="YOjoh3aK9eh-R5aicv4c-55" value="Add PUP to top of Driver Queue" style="whiteSpace=wrap;" vertex="1" parent="3">
          <mxGeometry x="84" y="488" width="110" height="50" as="geometry"/>
        </mxCell>
        <mxCell id="YOjoh3aK9eh-R5aicv4c-67" value="" style="edgeStyle=orthogonalEdgeStyle;rounded=0;orthogonalLoop=1;jettySize=auto;html=1;entryX=0.5;entryY=0;entryDx=0;entryDy=0;" edge="1" parent="3" source="YOjoh3aK9eh-R5aicv4c-58" target="38">
          <mxGeometry relative="1" as="geometry">
            <mxPoint x="185" y="632" as="targetPoint"/>
            <Array as="points">
              <mxPoint x="138" y="622"/>
            </Array>
          </mxGeometry>
        </mxCell>
        <mxCell id="YOjoh3aK9eh-R5aicv4c-58" value="Alert Driver and Customer" style="whiteSpace=wrap;" vertex="1" parent="3">
          <mxGeometry x="84" y="562" width="110" height="50" as="geometry"/>
        </mxCell>
        <mxCell id="YOjoh3aK9eh-R5aicv4c-42" value="Determine Eligible Drivers" style="shape=process;whiteSpace=wrap;html=1;backgroundOutline=1;" vertex="1" parent="3">
          <mxGeometry x="78.5" y="62" width="120" height="60" as="geometry"/>
        </mxCell>
        <mxCell id="YOjoh3aK9eh-R5aicv4c-43" value="Alert Drivers" style="shape=process;whiteSpace=wrap;html=1;backgroundOutline=1;" vertex="1" parent="3">
          <mxGeometry x="78.5" y="162" width="120" height="60" as="geometry"/>
        </mxCell>
        <mxCell id="38" value="" style="ellipse;shape=endState;fillColor=#000000;strokeColor=#ff0000" parent="3" vertex="1">
          <mxGeometry x="123.5" y="632" width="30" height="30" as="geometry"/>
        </mxCell>
        <mxCell id="4" value="Driver" style="swimlane;whiteSpace=wrap;startSize=23;" parent="1" vertex="1">
          <mxGeometry x="725" y="128" width="280" height="672" as="geometry"/>
        </mxCell>
        <mxCell id="YOjoh3aK9eh-R5aicv4c-45" value="" style="edgeStyle=orthogonalEdgeStyle;rounded=0;orthogonalLoop=1;jettySize=auto;html=1;" edge="1" parent="4" source="18" target="YOjoh3aK9eh-R5aicv4c-44">
          <mxGeometry relative="1" as="geometry"/>
        </mxCell>
        <mxCell id="18" value="Receive New PUP Alert" style="whiteSpace=wrap;" parent="4" vertex="1">
          <mxGeometry x="74" y="62" width="110" height="50" as="geometry"/>
        </mxCell>
        <mxCell id="YOjoh3aK9eh-R5aicv4c-46" value="" style="edgeStyle=orthogonalEdgeStyle;rounded=0;orthogonalLoop=1;jettySize=auto;html=1;entryX=0.5;entryY=0;entryDx=0;entryDy=0;" edge="1" parent="4" source="YOjoh3aK9eh-R5aicv4c-44" target="YOjoh3aK9eh-R5aicv4c-47">
          <mxGeometry relative="1" as="geometry">
            <mxPoint x="129" y="282" as="targetPoint"/>
          </mxGeometry>
        </mxCell>
        <mxCell id="YOjoh3aK9eh-R5aicv4c-44" value="View Driver PUP Page" style="whiteSpace=wrap;" vertex="1" parent="4">
          <mxGeometry x="74" y="152" width="110" height="50" as="geometry"/>
        </mxCell>
        <mxCell id="YOjoh3aK9eh-R5aicv4c-47" value="Request $ Confirm PUP" style="shape=process;whiteSpace=wrap;html=1;backgroundOutline=1;" vertex="1" parent="4">
          <mxGeometry x="69" y="252" width="120" height="60" as="geometry"/>
        </mxCell>
        <mxCell id="YOjoh3aK9eh-R5aicv4c-60" value="Receive Driver PUP Confirmation" style="whiteSpace=wrap;" vertex="1" parent="4">
          <mxGeometry x="89" y="562" width="110" height="50" as="geometry"/>
        </mxCell>
        <mxCell id="11" value="" style="endArrow=open;strokeColor=#000000;endFill=1;rounded=0;exitX=0.502;exitY=1;exitDx=0;exitDy=0;exitPerimeter=0;entryX=0;entryY=0.5;entryDx=0;entryDy=0;edgeStyle=orthogonalEdgeStyle;" parent="1" source="YOjoh3aK9eh-R5aicv4c-41" target="YOjoh3aK9eh-R5aicv4c-42" edge="1">
          <mxGeometry relative="1" as="geometry">
            <mxPoint x="279" y="380" as="sourcePoint"/>
            <mxPoint x="464" y="233" as="targetPoint"/>
            <Array as="points">
              <mxPoint x="304" y="380"/>
              <mxPoint x="389" y="380"/>
              <mxPoint x="389" y="220"/>
            </Array>
          </mxGeometry>
        </mxCell>
        <mxCell id="19" value="" style="endArrow=open;strokeColor=#000000;endFill=1;rounded=0;edgeStyle=orthogonalEdgeStyle;exitX=0.5;exitY=1;exitDx=0;exitDy=0;" parent="1" source="YOjoh3aK9eh-R5aicv4c-43" target="18" edge="1">
          <mxGeometry relative="1" as="geometry">
            <mxPoint x="518.5" y="368" as="sourcePoint"/>
            <Array as="points">
              <mxPoint x="583.5" y="368"/>
              <mxPoint x="651.5" y="368"/>
              <mxPoint x="651.5" y="205"/>
            </Array>
          </mxGeometry>
        </mxCell>
        <mxCell id="YOjoh3aK9eh-R5aicv4c-49" value="" style="edgeStyle=orthogonalEdgeStyle;rounded=0;orthogonalLoop=1;jettySize=auto;html=1;entryX=1;entryY=0.5;entryDx=0;entryDy=0;" edge="1" parent="1" source="YOjoh3aK9eh-R5aicv4c-47" target="30">
          <mxGeometry relative="1" as="geometry"/>
        </mxCell>
        <mxCell id="YOjoh3aK9eh-R5aicv4c-61" value="" style="edgeStyle=orthogonalEdgeStyle;rounded=0;orthogonalLoop=1;jettySize=auto;html=1;" edge="1" parent="1" source="YOjoh3aK9eh-R5aicv4c-58" target="YOjoh3aK9eh-R5aicv4c-60">
          <mxGeometry relative="1" as="geometry"/>
        </mxCell>
        <mxCell id="YOjoh3aK9eh-R5aicv4c-63" value="" style="edgeStyle=orthogonalEdgeStyle;rounded=0;orthogonalLoop=1;jettySize=auto;html=1;" edge="1" parent="1" source="YOjoh3aK9eh-R5aicv4c-58" target="YOjoh3aK9eh-R5aicv4c-62">
          <mxGeometry relative="1" as="geometry"/>
        </mxCell>
        <mxCell id="YOjoh3aK9eh-R5aicv4c-64" value="" style="edgeStyle=orthogonalEdgeStyle;rounded=0;orthogonalLoop=1;jettySize=auto;html=1;entryX=1;entryY=0.5;entryDx=0;entryDy=0;" edge="1" parent="1" source="YOjoh3aK9eh-R5aicv4c-60" target="38">
          <mxGeometry relative="1" as="geometry">
            <mxPoint x="869" y="820" as="targetPoint"/>
            <Array as="points">
              <mxPoint x="869" y="775"/>
            </Array>
          </mxGeometry>
        </mxCell>
        <mxCell id="YOjoh3aK9eh-R5aicv4c-66" value="" style="edgeStyle=orthogonalEdgeStyle;rounded=0;orthogonalLoop=1;jettySize=auto;html=1;entryX=0;entryY=0.5;entryDx=0;entryDy=0;" edge="1" parent="1" source="YOjoh3aK9eh-R5aicv4c-62" target="38">
          <mxGeometry relative="1" as="geometry">
            <mxPoint x="304" y="820" as="targetPoint"/>
            <Array as="points">
              <mxPoint x="304" y="775"/>
            </Array>
          </mxGeometry>
        </mxCell>
      </root>
    </mxGraphModel>
  </diagram>
</mxfile>
